# xmcd
#
# Track frame offsets:
#   150
#   14671
#   35095
#   53828
#   82021
#   97939
#   118481
#   133496
#   155630
#   171113
#   195117
#
# Disc length: 2978 seconds
#
# Revision: 0
# Processed by: cddbd v1.5.2PL0 Copyright (c) Steve Scherf et al.
# Submitted via: uFREEDB ActiveX Control 1.5
#
DISCID=990ba00b
DTITLE=LUIZ MARENCO - CANTA JAYME CAETANO BRAUN
DYEAR=2006
DGENRE=Country
TTITLE0=VASSOURA DE GUANXUMA
TTITLE1=EXTRAVIADO
TTITLE2=BAILONGO NO MATO GRANDE
TTITLE3=DESERDADO
TTITLE4=QUERENCIA
TTITLE5=CHARLA DE DOMADOR
TTITLE6=DESTINOS
TTITLE7=RIO DAS FALAS
TTITLE8=DÉCIMA DAS PELAGENS
TTITLE9=TALVEZ ALGUM DIA
TTITLE10=MEU RANCHO
EXTD=
EXTT0=
EXTT1=
EXTT2=
EXTT3=
EXTT4=
EXTT5=
EXTT6=
EXTT7=
EXTT8=
EXTT9=
EXTT10=
PLAYORDER=
